<?xml version="1.0" encoding="UTF-8"?>
<svg xmlns="http://www.w3.org/2000/svg" width="500" height="500" viewBox="0 0 500 500">
  <defs>
    <clipPath id="clip-az">
      <circle cx="250" cy="250" r="230"/>
    </clipPath>
  </defs>
  
  <!-- White border circle -->
  <circle cx="250" cy="250" r="250" fill="white"/>
  
  <!-- Clipped original content -->
  <g clip-path="url(#clip-az)">
    <g transform="translate(-210.00000000000006, 19.99999999999997) scale(0.7666666666666667)">
      <g transform="translate(0, 0)">
        <path fill="#3f9c35" d="M0 0h1200v600H0z"/><path fill="#ed2939" d="M0 0h1200v400H0z"/><path fill="#00b9e4" d="M0 0h1200v200H0z"/><circle cx="580" cy="300" r="90" fill="#fff"/><circle cx="600" cy="300" r="75" fill="#ed2939"/><path d="M680 250l9.567 26.903 25.788-12.258-12.258 25.788L730 300l-26.903 9.567 12.258 25.788-25.788-12.258L680 350l-9.567-26.903-25.788 12.258 12.258-25.788L630 300l26.903-9.567-12.258-25.788 25.788 12.258L680 250z" fill="#fff"/>
      </g>
    </g>
  </g>
</svg>