<?xml version="1.0" encoding="UTF-8"?>
<svg xmlns="http://www.w3.org/2000/svg" xmlns:xlink="http://www.w3.org/1999/xlink" width="500" height="500" viewBox="0 0 500 500">
  <defs>
    <clipPath id="clip-ge">
      <circle cx="250" cy="250" r="230"/>
    </clipPath>
  </defs>
  
  <!-- White border circle -->
  <circle cx="250" cy="250" r="250" fill="white"/>
  
  <!-- Clipped original content -->
  <g clip-path="url(#clip-ge)">
    <g transform="translate(-95, 20.00000000000003) scale(2.3)">
      <g transform="translate(0, 0)">
        <defs><g id="c"><clipPath id="a"><path d="M-109 104a104 104 0 000-208h218a104 104 0 000 208z"/></clipPath><path id="b" d="M-55 74a55 55 0 01110 0V-74a55 55 0 01-110 0z" clip-path="url(#a)"/><use xlink:href="#b" transform="rotate(90)"/></g></defs><path fill="#fff" d="M0 0h300v200H0z"/><path d="M130 0v80H0v40h130v80h40v-80h130V80H170V0h-40z" fill="red"/><use xlink:href="#c" transform="translate(64.45 39.45)" fill="red"/><use xlink:href="#c" transform="translate(235.55 160.55)" fill="red"/><use xlink:href="#c" transform="translate(235.55 39.45)" fill="red"/><use xlink:href="#c" transform="translate(64.45 160.55)" fill="red"/>
      </g>
    </g>
  </g>
</svg>