<?xml version="1.0" encoding="UTF-8"?>
<svg xmlns="http://www.w3.org/2000/svg" xmlns:xlink="http://www.w3.org/1999/xlink" width="500" height="500" viewBox="0 0 500 500">
  <defs>
    <clipPath id="clip-kr">
      <circle cx="250" cy="250" r="230"/>
    </clipPath>
  </defs>
  
  <!-- White border circle -->
  <circle cx="250" cy="250" r="250" fill="white"/>
  
  <!-- Clipped original content -->
  <g clip-path="url(#clip-kr)">
    <g transform="translate(-95, 20) scale(9.583333333333334)">
      <g transform="translate(36, 24)">
        <path fill="#fff" d="M-36-24h72v48h-72z"/><g transform="rotate(-56.31)"><g id="b"><path id="a" d="M-6-25H6m-12 3H6m-12 3H6" stroke="#000" stroke-width="2"/><use xlink:href="#a" y="44"/></g><path stroke="#fff" d="M0 17v10"/><circle fill="#cd2e3a" r="12"/><path fill="#0047a0" d="M0-12A6 6 0 000 0a6 6 0 010 12 12 12 0 010-24z"/></g><g transform="rotate(-123.69)"><use xlink:href="#b"/><path stroke="#fff" d="M0-23.5v3M0 17v3.5m0 3v3"/></g>
      </g>
    </g>
  </g>
</svg>