<?xml version="1.0" encoding="UTF-8"?>
<svg xmlns="http://www.w3.org/2000/svg" width="500" height="500" viewBox="0 0 500 500">
  <defs>
    <clipPath id="clip-pa">
      <circle cx="250" cy="250" r="230"/>
    </clipPath>
  </defs>
  
  <!-- White border circle -->
  <circle cx="250" cy="250" r="250" fill="white"/>
  
  <!-- Clipped original content -->
  <g clip-path="url(#clip-pa)">
    <g transform="translate(-95, 19.99999999999997) scale(0.7666666666666667)">
      <g transform="translate(0, 0)">
        <path d="M0 0h900v600H0z" fill="#fff"/><path d="M0 300h450v300H0z" fill="#002855"/><path d="M450 0h450v300H450z" fill="#A6192E"/><path d="M675 375l16.84 51.822 54.49.002-44.082 32.03 16.836 51.823L675 478.65l-44.084 32.027 16.836-51.823-44.081-32.03 54.489-.002z" fill="#A6192E" fill-rule="evenodd"/><path d="M225 75l16.84 51.822 54.49.002-44.082 32.03 16.836 51.823L225 178.65l-44.084 32.027 16.836-51.823-44.081-32.03 54.489-.002z" fill="#002855" fill-rule="evenodd"/>
      </g>
    </g>
  </g>
</svg>