<?xml version="1.0" encoding="UTF-8"?>
<svg id="Layer_1" xmlns="http://www.w3.org/2000/svg" version="1.1" viewBox="0 0 48 48">
  <!-- Generator: Adobe Illustrator 30.1.0, SVG Export Plug-In . SVG Version: 2.1.1 Build 136)  -->
  <defs>
    <style>
      .st0 {
        fill: #fff;
      }

      .st1 {
        fill: teal;
      }
    </style>
  </defs>
  <path class="st1" d="M38.02,35.43l-10.52,10.52c-1.94,1.93-5.07,1.93-7.01,0l-10.52-10.52c-7.74-7.74-7.74-20.3,0-28.04,7.74-7.74,20.3-7.74,28.04,0,7.74,7.74,7.74,20.3,0,28.04Z"/>
  <path class="st0" d="M21.03,29.14c-.15-.14-.23-.31-.23-.52v-.88c.18-1.07.58-2.03,1.2-2.87.62-.84,1.49-1.8,2.58-2.87.81-.82,1.43-1.49,1.84-2.01.41-.52.62-1.05.65-1.59.08-.79-.19-1.42-.78-1.89-.6-.47-1.32-.71-2.16-.71-1.99,0-3.21.96-3.67,2.87-.2.61-.6.92-1.19.92h-4.67c-.28,0-.5-.1-.67-.29s-.25-.44-.25-.75c.05-1.4.5-2.74,1.34-4s2.08-2.29,3.71-3.08,3.58-1.19,5.85-1.19,4.21.36,5.66,1.09c1.45.73,2.49,1.62,3.12,2.68.62,1.06.94,2.14.94,3.23,0,1.25-.29,2.35-.86,3.29-.57.94-1.42,2.03-2.54,3.25-.69.74-1.23,1.36-1.63,1.87-.4.51-.7,1.05-.9,1.61-.08.23-.17.57-.27,1.03-.2.36-.38.61-.53.76s-.37.23-.65.23h-5.36c-.2,0-.38-.07-.54-.21ZM20.96,37.2c-.18-.18-.27-.41-.27-.69v-4.36c0-.28.09-.51.27-.69.18-.18.41-.27.69-.27h4.9c.28,0,.52.09.71.27.19.18.29.41.29.69v4.36c0,.28-.1.51-.29.69-.19.18-.43.27-.71.27h-4.9c-.28,0-.51-.09-.69-.27Z"/>
</svg>