<?xml version="1.0" encoding="UTF-8"?>
<svg id="Layer_1" data-name="Layer 1" xmlns="http://www.w3.org/2000/svg" viewBox="0 0 500 500">
  <path fill="teal" d="M22.16,235.72C33.51,41.57,272.9-49.96,411.25,88.37c138.79,138.76,47.36,378.33-146.86,389.69h-28.5c-5.13-1.37-10.99-1.2-16.35-1.91-100.57-13.34-182.32-94.82-195.48-195.56-.7-5.36-.54-11.22-1.91-16.35.41-9.43-.55-19.11,0-28.51ZM205.43,119.27c-61.4,2.69-83.96,27.35-86.24,88.35-1,26.82-1,57.89,0,84.71,2.34,62.43,26.21,86.31,88.61,88.65,26.81,1.01,57.87,1.01,84.68,0,62.32-2.34,86.28-26.27,88.61-88.65,1-26.82,1-57.89,0-84.71-2.34-62.48-26.25-86.31-88.61-88.65-27.64-1.04-59.41-.91-87.05.3Z"/>
  <path fill="teal" d="M248.2,142.41c17.12-.03,37.16-.33,54.08.62,63.76,3.58,54.44,53,54.7,101.19.1,18.81,1.14,38.89.07,57.91-3.56,63.39-52.37,54.44-100.26,54.72-19.13.11-39.46,1.16-58.78.07-63.1-3.55-54.42-51.49-54.7-99.41-.11-19.48-1.18-40.06-.07-59.69,3.59-64,56.04-55.32,104.96-55.41ZM316.7,164.67c-3.73.63-8.43,4.26-10.32,7.49-8.17,13.95,8.58,30.01,22.09,21.21,14.43-9.4,5.89-31.66-11.77-28.7ZM240.15,183.41c-51.2,5.78-74.65,70.49-41.63,109.76,34.34,40.84,101.94,26.99,116.19-24.48,13.4-48.41-25.46-90.82-74.56-85.28Z"/>
  <path fill="teal" d="M244.61,206.57c59-7.11,66.71,82.24,9.53,87.05-56.93,4.78-64.88-80.38-9.53-87.05Z"/>
</svg>