<?xml version="1.0" encoding="UTF-8"?>
<svg id="Layer_1" data-name="Layer 1" xmlns="http://www.w3.org/2000/svg" viewBox="0 0 500 500">
  <path fill="teal" d="M237.51,236.86l-80.67-67.77h184.45l-75.15,64.6c-8.56,7.3-18.73,8.93-28.63,3.17Z"/>
  <path fill="teal" d="M359.19,311.1c0,.17.54.74.51,1.55-.18,8.51-8.41,17.55-16.65,19.22-60.97,1.56-122.17.25-183.23.67-7.8,1.07-21.43-9.41-21.43-17.09v-125.17l81.21,67.78c18.08,12.46,39.9,12.62,58.06.23l81.53-68v120.83Z"/>
  <path fill="teal" d="M78.05,99.68c-124.66,141.79-29.15,367.26,157.74,378.21,9.41.55,19.1-.42,28.53,0l23.36-2.94c97.69-16.15,175.61-96.31,188.64-194.54.71-5.36.54-11.22,1.92-16.36v-28.51C466.43,33.86,212.5-53.24,78.05,99.68ZM388.51,312.75c-1.57,23.95-20.7,43.96-44.75,45.88h-188.31c-22.31-1.46-42.66-21.09-44.74-43.46v-130.33c3-22.49,20.43-40.81,43.2-43.37l189.29-.1c24.86,2.39,43.78,23.33,45.3,48.05,2.48,40.19-1.93,82.88,0,123.33Z"/>
</svg>