<?xml version="1.0" encoding="UTF-8"?>
<svg id="Layer_1" data-name="Layer 1" xmlns="http://www.w3.org/2000/svg" viewBox="0 0 500 500">
  <path fill="teal" d="M478.71,235.5v28.57c-1.38,5.14-1.2,11.02-1.91,16.39-13.05,98.43-91.14,178.77-189.03,194.95l-23.41,2.94c-9.45-.41-19.16.55-28.58,0C48.49,467.39-47.21,241.46,77.71,99.37,212.43-53.86,466.88,33.42,478.71,235.5ZM298.29,119.44h-41.98v180.79c0,35.42-47.01,51.09-69.14,23.58-24.36-30.26,5.96-72.86,42.35-60.64v-43.75c-57.88-8.15-106.78,44.12-91.35,101.59,23.15,86.21,154.9,75.84,161.01-19.01l-.88-96.86c.61-.7,10.43,6.46,11.9,7.29,10.23,5.8,23.58,11.1,35.25,12.98,6.34,1.02,12.7.74,18.94,2.05v-42.85c-36.1-.08-65.19-29.25-66.09-65.18Z"/>
</svg>