<?xml version="1.0" encoding="UTF-8"?>
<svg id="Layer_1" data-name="Layer 1" xmlns="http://www.w3.org/2000/svg" viewBox="0 0 500 500">
  <path fill="teal" d="M264.4,21.48l23.35,2.94c97.47,15.94,175.75,96.64,188.56,194.84.7,5.36.54,11.24,1.91,16.38v28.55c-1.37,5.14-1.2,11.02-1.91,16.38-13.02,98.38-90.92,178.67-188.56,194.84l-23.35,2.94c-9.43-.41-19.11.55-28.51,0-114.53-6.71-208.43-102.47-213.86-217.24C16.18,137.37,112.41,28.71,235.89,21.48h28.51ZM151.06,118.99c-35.31,4.22-34.47,55.46,2.44,57.74,46.13,2.84,45-63.4-2.44-57.74ZM383.78,366.81v-110.2c0-5.27-4.27-19.51-6.45-24.77-12.59-30.53-46.58-43.19-77.32-33.25-13.55,4.38-21.48,13.09-30.27,23.67v-23.2h-55.24v167.76h55.24v-95.03c0-21.47,20.29-38.28,41.23-30.59,9.87,3.62,17.57,16.84,17.57,27.02v98.6h55.24ZM184.22,366.81v-166.42l-1.34-1.34h-53.46l-1.34,1.34v166.42h56.13Z"/>
</svg>